<?xml version="1.0" encoding="UTF-8"?><svg id="_レイヤー_1" xmlns="http://www.w3.org/2000/svg" viewBox="0 0 56.9 54.05"><defs><style>.cls-1{fill:#0277bd;}.cls-2{fill:#039be5;}.cls-3{fill:#eee;}.cls-4{fill:#e65100;}.cls-5{fill:#fff;}.cls-6{fill:#ff6d00;}</style></defs><g><path class="cls-1" d="M56.9,16.05H22.9l3,34,14,4,14-4,3-34h0Z"/><path class="cls-2" d="M39.9,19.05v31.9l11.2-3.2,2.5-28.7h-13.7Z"/><path class="cls-5" d="M49,24.05h-9.1v4h4.9l-.3,4h-4.6v4h4.4l-.3,4.5-4.1,1.4v4.2l7.9-2.6,.7-11.5h0l.5-8Z"/><path class="cls-3" d="M39.9,24.05v4h-8.9l-.3-4h9.2Zm-4.6,8l.2,4h4.4v-4h-4.6Zm.4,6h-4l.3,5.5,7.9,2.6v-4.2l-4.1-1.4-.1-2.5Z"/></g><g><path class="cls-4" d="M34,0H0L3,34l14,4,14-4L34,0h0Z"/><path class="cls-6" d="M17,3v31.9l11.2-3.2L30.7,3h-13.7Z"/><path class="cls-5" d="M17,20v-4h8.6l-.7,11.5-7.9,2.6v-4.2l4.1-1.4,.3-4.5s-4.4,0-4.4,0Zm8.9-8l.3-4h-9.2v4h8.9Z"/><path class="cls-3" d="M17,25.9v4.2l-7.9-2.6-.4-5.5h4l.2,2.5,4.1,1.4Zm-4.9-13.9h4.9v-4H7.9l.7,12h8.4v-4h-4.6l-.3-4Z"/></g></svg>