<?xml version="1.0" encoding="UTF-8"?><svg id="Layer_1" xmlns="http://www.w3.org/2000/svg" viewBox="0 0 432 419.17"><defs><style>.cls-1{fill:#ff7c01;}.cls-2{fill:#271302;}</style></defs><rect class="cls-2" width="432" height="419.17" rx="96.06" ry="96.06"/><rect class="cls-2" x="20" y="20" width="392" height="379.17" rx="76.06" ry="76.06"/><path class="cls-1" d="M151.35,244.76l-12.19,37.6c-.35,1.24-1.51,2.07-2.79,2h-29.47c-1.78,0-2.29-1-2-2.54l50.8-146.58c1-2.79,2-5.84,2.54-15.49-.05-.91,.63-1.69,1.53-1.78h40.64c1.27,0,1.78,.25,2,1.52l57.67,162.58c.51,1.27,.25,2.29-1.27,2.29h-33c-1.25,.18-2.44-.58-2.81-1.78l-13-37.85-58.65,.03Zm49.29-31.75c-5.08-16.77-15.25-47.51-20.07-65.54h-.26c-4.06,17-13.21,45-19.81,65.54h40.14Z"/><path class="cls-1" d="M275.32,124.86c0-11.43,8.38-19.56,19.81-19.56,12.19,0,19.56,8.13,19.56,19.56s-7.87,19.81-19.81,19.81-19.56-7.87-19.56-19.81Zm1.77,35.31c0-1.27,.51-2,2-2h31.24c1.53,0,2,.5,2,2v121.93c0,1.53-.25,2.29-2.28,2.29h-30.42c-1.77,0-2.54-.76-2.54-2.29v-121.93Z"/></svg>