<?xml version="1.0" encoding="UTF-8"?><svg id="_レイヤー_1" xmlns="http://www.w3.org/2000/svg" viewBox="0 0 36 36"><defs><style>.cls-1{fill:#000001;}.cls-2{fill:#ffd600;}</style></defs><path class="cls-2" d="M0,36V0H36V36H0Z"/><path class="cls-1" d="M23.54,26.95c.69,1.12,1.44,2.2,3.04,2.2,1.34,0,2.04-.67,2.04-1.58,0-1.1-.73-1.49-2.2-2.13l-.81-.34c-2.33-.99-3.88-2.23-3.88-4.84,0-2.41,1.84-4.24,4.73-4.24,2.05,0,3.53,.71,4.59,2.57l-2.51,1.61c-.55-.99-1.15-1.38-2.08-1.38s-1.55,.6-1.55,1.38c0,.96,.6,1.35,1.98,1.95l.81,.34c2.75,1.17,4.29,2.36,4.29,5.05,0,2.89-2.28,4.48-5.35,4.48s-4.7-1.51-5.65-3.37l2.54-1.69Zm-11.59,.08c.51,.91,1.27,1.6,2.38,1.6s1.67-.42,1.67-2.04v-10.59h3.33v11.1c0,3.37-1.95,4.9-4.81,4.9-2.58,0-4.44-1.75-5.19-3.37l2.62-1.6Z"/></svg>