<?xml version="1.0" encoding="UTF-8"?><svg id="_レイヤー_1" xmlns="http://www.w3.org/2000/svg" viewBox="0 0 44 32.98"><defs><style>.cls-1{fill:#f06292;}</style></defs><path class="cls-1" d="M37.87,18.96c-1.54,0-2.87,.38-3.99,.93-.41-.82-.82-1.53-.89-2.07-.08-.62-.17-.99-.08-1.74,.1-.74,.53-1.79,.52-1.87s-.1-.46-.98-.46c-.89,0-1.65,.17-1.74,.41-.09,.23-.26,.76-.37,1.31-.15,.8-1.77,3.67-2.69,5.17-.3-.59-.56-1.1-.61-1.51-.08-.62-.17-.99-.08-1.74,.1-.74,.53-1.79,.52-1.87s-.1-.46-.98-.46c-.89,0-1.65,.17-1.74,.41-.09,.23-.18,.78-.37,1.31-.18,.53-2.33,5.31-2.89,6.56-.29,.63-.54,1.14-.71,1.49,0,0,0,0,0,0,0,0-.01,.02-.03,.06-.15,.3-.24,.46-.24,.46h0c-.12,.22-.25,.42-.31,.42-.04,0-.13-.58,.02-1.37,.32-1.66,1.09-4.25,1.08-4.34,0-.05,.14-.5-.5-.73-.63-.23-.85,.15-.91,.15-.06,0-.1,.14-.1,.14,0,0,.7-2.91-1.33-2.91-1.27,0-3.02,1.39-3.89,2.64-.55,.3-1.72,.94-2.95,1.62-.48,.26-.96,.53-1.42,.78-.03-.03-.06-.07-.1-.1-2.46-2.62-7-4.48-6.81-8.01,.07-1.28,.52-4.66,8.73-8.75,6.73-3.35,12.12-2.43,13.05-.39,1.33,2.92-2.88,8.35-9.87,9.14-2.66,.3-4.07-.73-4.41-1.12-.37-.41-.42-.42-.56-.35-.22,.12-.08,.48,0,.69,.21,.54,1.06,1.51,2.53,1.99,1.28,.42,4.41,.65,8.19-.81,4.24-1.64,7.54-6.2,6.57-10.01C26.57,.16,20.14-1.11,14.06,1.05c-3.62,1.29-7.54,3.3-10.36,5.94C.36,10.12-.18,12.84,.04,13.98c.78,4.05,6.36,6.68,8.6,8.64-.11,.06-.21,.12-.31,.17-1.12,.55-5.37,2.78-6.44,5.13-1.21,2.67,.19,4.58,1.12,4.84,2.87,.8,5.81-.64,7.4-3,1.58-2.36,1.39-5.43,.66-6.83,0-.02-.02-.03-.03-.05,.29-.17,.58-.34,.88-.52,.57-.33,1.13-.65,1.61-.91-.27,.74-.47,1.64-.57,2.93-.12,1.51,.5,3.47,1.31,4.24,.36,.34,.79,.35,1.06,.35,.94,0,1.38-.79,1.85-1.72,.58-1.14,1.1-2.47,1.1-2.47,0,0-.65,3.59,1.12,3.59,.64,0,1.29-.83,1.58-1.26,0,0,0,0,0,0,0,0,.02-.03,.05-.08,.07-.1,.1-.17,.1-.17,0,0,0,0,0-.02,.26-.45,.83-1.47,1.69-3.16,1.11-2.18,2.18-4.92,2.18-4.92,0,0,.1,.67,.42,1.77,.19,.65,.6,1.37,.92,2.06-.26,.36-.42,.56-.42,.56,0,0,0,0,0,.01-.21,.27-.44,.57-.68,.86-.88,1.05-1.92,2.24-2.06,2.58-.17,.41-.13,.7,.19,.94,.23,.17,.65,.2,1.08,.17,.79-.05,1.34-.25,1.62-.37,.43-.15,.92-.39,1.39-.73,.86-.63,1.38-1.54,1.33-2.74-.03-.66-.24-1.32-.5-1.93,.08-.11,.16-.23,.24-.34,1.36-1.98,2.41-4.16,2.41-4.16,0,0,.1,.67,.42,1.77,.16,.56,.49,1.17,.78,1.77-1.28,1.04-2.07,2.24-2.34,3.03-.51,1.46-.11,2.12,.64,2.27,.34,.07,.82-.09,1.17-.24,.45-.15,.98-.4,1.49-.76,.86-.63,1.69-1.52,1.64-2.72-.02-.55-.17-1.09-.37-1.61,1.08-.45,2.48-.7,4.27-.49,3.83,.45,4.58,2.84,4.43,3.84-.14,1-.95,1.55-1.22,1.72-.27,.17-.35,.22-.33,.35,.03,.18,.16,.17,.39,.13,.31-.05,2.01-.81,2.08-2.66,.09-2.35-2.15-4.92-6.13-4.9ZM8.37,28.9c-1.27,1.38-3.04,1.9-3.8,1.47-.82-.47-.49-2.51,1.06-3.98,.95-.89,2.17-1.72,2.98-2.23,.19-.11,.46-.27,.79-.47,.06-.03,.09-.05,.09-.05h0c.06-.04,.13-.08,.2-.12,.57,2.09,.02,3.93-1.31,5.38Zm9.23-6.28c-.44,1.08-1.36,3.83-1.93,3.68-.48-.13-.78-2.22-.1-4.28,.34-1.04,1.07-2.28,1.5-2.76,.69-.77,1.45-1.03,1.64-.71,.24,.4-.84,3.39-1.12,4.07Zm7.63,3.64c-.19,.1-.36,.16-.44,.11-.06-.03,.08-.16,.08-.16,0,0,.95-1.03,1.33-1.49,.22-.27,.47-.59,.75-.95,0,.04,0,.07,0,.11,0,1.23-1.19,2.06-1.72,2.39Zm5.88-1.34c-.14-.1-.12-.42,.34-1.42,.18-.39,.59-1.05,1.31-1.69,.08,.26,.13,.51,.13,.74,0,1.55-1.11,2.13-1.78,2.37Z"/></svg>