<?xml version="1.0" encoding="UTF-8"?><svg id="Layer_1" xmlns="http://www.w3.org/2000/svg" viewBox="0 0 432 419.17"><defs><style>.cls-1{fill:#fbdaf1;}.cls-2{fill:#2e0020;}</style></defs><rect class="cls-2" width="432" height="419.17" rx="96.06" ry="96.06"/><rect class="cls-2" x="20" y="20" width="392" height="379.17" rx="76.06" ry="76.06"/><path class="cls-1" d="M171.41,198.58l50.3,83c.59,.75,.46,1.84-.29,2.43-.28,.22-.63,.35-.98,.37h-36.07c-2.29,0-3.56-.76-4.32-2.29-11.18-19.81-22.36-39.63-33.79-60.46h-.26c-10.16,20.33-21.34,40.9-32,60.72-.61,1.38-2.06,2.2-3.56,2h-34.29c-1.78,0-1.78-1.53-1-2.54l48.78-80.78-47.78-80.45c-.57-.62-.53-1.58,.09-2.15,.32-.29,.75-.44,1.18-.39h35.82c1.78,0,2.54,.25,3.3,2,10.16,20.07,22.1,40.14,32.52,60.21h.25c9.91-20.33,21.08-39.89,31.5-60.21,.76-1.27,1.27-2,3.56-2h32.77c1.77,0,2,1.27,1,2.79l-46.73,77.75Z"/><path class="cls-1" d="M224.75,222.41c0-36.33,27.18-66.81,73.67-66.81,2,0,4.57,.25,8.38,.5v-50c-.1-.88,.54-1.68,1.42-1.78,.12-.01,.24-.01,.36,0h32c1.27,0,1.52,.51,1.52,1.53V255.94c-.07,6.2,.27,12.39,1,18.54,0,1.27-.26,1.78-1.78,2.29-15.81,6.72-32.82,10.17-50,10.16-37.61,0-66.57-21.35-66.57-64.52Zm82.05-36.08c-2.54-1-5.84-1.27-9.4-1.27-19.56,0-36.32,11.94-36.32,35.57,0,25.15,14.48,36.07,33.78,36.07,4.32,0,8.39-.25,11.94-1.53v-68.84Z"/></svg>